<svg width="274" height="264" viewBox="0 0 274 264" fill="none" xmlns="http://www.w3.org/2000/svg">
<rect width="274" height="264" fill="#F4F4F4"/>
<mask id="path-2-inside-1_290_453" fill="white">
<path fill-rule="evenodd" clip-rule="evenodd" d="M80 90.1566L194.516 90.1566C193.756 121.127 168.411 146 137.258 146C106.104 146 80.7599 121.127 80 90.1566Z"/>
</mask>
<path d="M194.516 90.1566L196.515 90.2056L196.565 88.1566H194.516V90.1566ZM80 90.1566V88.1566H77.9503L78.0006 90.2056L80 90.1566ZM194.516 88.1566L80 88.1566V92.1566L194.516 92.1566V88.1566ZM192.516 90.1075C191.783 119.996 167.323 144 137.258 144V148C169.499 148 195.728 122.259 196.515 90.2056L192.516 90.1075ZM137.258 144C107.192 144 82.7328 119.996 81.9994 90.1075L78.0006 90.2056C78.7871 122.259 105.016 148 137.258 148V144Z" fill="#E2E2E2" mask="url(#path-2-inside-1_290_453)"/>
<path d="M82.8638 97.316H190.971" stroke="#E2E2E2" stroke-width="2"/>
<path d="M87.1594 111.635H187.391" stroke="#E2E2E2" stroke-width="2"/>
<rect x="182.076" y="46" width="3.57971" height="39.1984" rx="1.78985" transform="rotate(41.9161 182.076 46)" fill="#E2E2E2"/>
<rect x="189.409" y="54.4197" width="3.57971" height="39.4583" rx="1.78985" transform="rotate(55.4854 189.409 54.4197)" fill="#E2E2E2"/>
<path d="M111.501 82.9972C101.013 79.5514 95.2428 78.4305 87.8754 91.5885H186.675C183.448 84.5575 180.862 82.559 173.788 85.145C170.403 72.4392 162.333 76.5537 158.754 76.5537C152.31 68.6784 143 70.4559 136.559 79.4175C127.866 73.4715 119.377 73.6899 111.501 82.9972Z" fill="#F4F4F4" stroke="#E2E2E2" stroke-width="2"/>
</svg>
